<svg id="Capa_1" enable-background="new 0 0 512 512" height="512" viewBox="0 0 512 512" width="512" xmlns="http://www.w3.org/2000/svg"><g><g><g clip-rule="evenodd" fill-rule="evenodd"><path d="m7.648 288.184h95.62c-17.672-70.464-92.397-73.393-92.397-73.393-2.028 8.506-3.092 17.962-3.116 27.846z" fill="#fff"/><path d="m92.949 262.546c63.236-7.186 99.154-18.561 124.072-31.333-3.461-39.401-20.748-41.831-42.37-35.896-18.027 4.949-39.066 15.712-57.617 15.712-32 0-43-34.17-72-34.17-17.019 0-28.87 15.733-34.162 37.933-.001-.002 55.398 2.17 82.077 47.754z" fill="#d56a4e"/><path d="m174.65 195.316c21.621-5.935 38.909-3.505 42.37 35.896 23.58-12.087 37.308-25.426 55.014-37.653 0 0-66-54.963-75-62.262s-40.274 17.369-22.384 64.019z" fill="#fff"/><path d="m199.036 288.184c23.149 0 43.907 1.823 63.709 4.596 29.469-41.758 97.381 7.697 114.659-33.736-33.652-12.849-62.754-29.809-105.371-65.484-17.705 12.227-31.434 25.566-55.014 37.653-24.917 12.773-60.835 24.147-124.072 31.333 4.306 7.357 7.864 15.845 10.32 25.638z" fill="#d56a4e"/><path d="m7.576 318.693h191.46c105.981 0 161.844 38.212 305.328 30.823.045-.05.091-.099.136-.149v-29.436c0-8.262-3.331-14.687-8.573-19.65-27.086 19.305-56.362 19.619-82.983 17.204-58.535-5.31-101.473-17.882-150.198-24.705-19.802-2.773-40.56-4.596-63.709-4.596h-191.389z" fill="#d56a4e"/><path d="m412.944 317.484c26.622 2.415 55.897 2.102 82.983-17.204-5.559-5.263-13.266-8.883-21.427-11.305-41.126-12.207-70.528-19.789-97.095-29.933-17.279 41.433-85.19-8.022-114.659 33.736 48.724 6.824 91.662 19.396 150.198 24.706z" fill="#fff"/><path d="m37.5 381.869h310.037c57.927 0 123.712 3.84 156.827-32.354-143.484 7.388-199.347-30.823-305.328-30.823h-191.46l-.076 32.222c0 17.026 13.5 30.955 30 30.955z" fill="#fff"/><path d="m7.648 288.184h22.5l.107-45.548c.02-8.431.797-16.551 2.285-24.035-12.581-3.45-21.669-3.81-21.669-3.81-2.028 8.506-3.092 17.962-3.116 27.846z" fill="#eef4f9"/><path d="m57.17 178.998c-3.721-1.344-7.719-2.141-12.137-2.141-17.019 0-28.87 15.733-34.162 37.933 0 0 9.086.357 21.669 3.808 3.232-14.814 9.606-33.051 24.63-39.6z" fill="#ce3f29"/><path d="m7.576 318.693h22.572v-30.509h-22.5z" fill="#ce3f29"/><path d="m7.5 350.914c0 14.411 9.672 26.604 22.648 30.009v-62.23h-22.572z" fill="#eef4f9"/></g><g><path d="m247.533 266.643h-15v-15h15zm30-14.999h-15v-15h15z" fill="#fff"/></g></g><g><path d="m351.557 374.375-.04 15c3.723.01 7.474.031 11.243.052l3.737.021.08-15-3.733-.021c-3.784-.021-7.55-.042-11.287-.052z"/><path d="m476.634 281.786c-11.063-3.284-21.099-6.181-30.803-8.983-70.698-20.413-102.965-29.729-168.984-84.996 0 0-67.403-56.103-75.089-62.336-5.591-4.534-13.945-3.809-21.802 1.893-14.153 10.272-23.536 33.337-14.866 63.029-3.701 1.225-7.462 2.576-11.266 3.944-12.565 4.519-25.559 9.19-36.791 9.19-13.702 0-23.134-7.773-33.121-16.003-10.333-8.515-22.044-18.167-38.879-18.167-11.083 0-26.403 5.099-36.449 29.388-6.1 14.746-8.302 32.332-8.329 43.873l-.255 108.296c0 21.204 16.822 38.455 37.5 38.455h299.037v-15h-299.037c-12.407 0-22.5-10.522-22.5-23.438l.058-24.739h183.978c45.207 0 81.212 7.078 119.333 14.571 43.162 8.484 87.555 17.211 149.667 17.211 4.44 0 8.972-.045 13.6-.138-26.739 14.963-65.044 16.56-100.118 16.646l.037 15c46.836-.115 99.254-2.93 128.493-35.069l1.952-2.146v-32.336c0-17.829-12.56-31.376-35.366-38.145zm-4.268 14.38c3.725 1.105 7.009 2.383 9.894 3.812-22.405 12.091-46.115 12.081-68.64 10.037-34.73-3.15-64.027-8.91-92.359-14.479-14.178-2.787-28.07-5.516-42.263-7.86 12.257-7.226 28.539-5.833 45.544-4.369 20.885 1.798 44.296 3.814 56.433-14.959 18.045 6.549 37.465 12.158 60.695 18.865 9.679 2.796 19.686 5.685 30.696 8.953zm-288.403-151.846c3.783-4.986 7.492-6.609 8.865-6.776 8.419 6.865 49.834 41.324 66.967 55.585-2.931 2.179-5.788 4.362-8.589 6.507-8.604 6.589-17.33 13.272-28.224 19.7-2.734-14.489-8.12-24.161-16.33-29.412-7.998-5.115-17.192-5.416-27.105-3.484-6.968-23.347.582-37.067 4.416-42.12zm-138.929 40.038c11.451 0 19.741 6.832 29.34 14.743 11.05 9.106 23.574 19.428 42.66 19.428 13.847 0 28.091-5.122 41.867-10.075 16.092-5.787 31.291-11.252 39.67-5.893 5.241 3.352 8.74 11.491 10.424 24.224-13.326 6.37-29.815 12.325-51.719 17.483l3.438 14.601c54.617-12.864 77.492-30.382 99.613-47.324 3.842-2.942 7.532-5.768 11.344-8.536 37.427 30.856 65.028 47.427 94.665 59.677-7.604 7.983-21.071 7.352-40.507 5.679-21.877-1.884-48.815-4.19-66.332 16.398-18.791-2.483-38.525-4.078-60.461-4.078h-90.076c-1.272-4.143-2.774-8.135-4.485-11.981 14.897-1.899 28.769-4.11 41.322-6.606l-2.925-14.712c-13.829 2.75-29.332 5.151-46.113 7.158-10.263-15.608-24.834-27.915-43.201-36.303-12.7-5.8-24.593-8.538-32.538-9.824 4.574-13.124 12.197-24.059 24.014-24.059zm-27.814 38.645c6.799 1.005 18.05 3.375 30.107 8.881 22.492 10.272 37.865 26.667 45.826 48.799h-77.987l.09-38.03c.013-5.378.609-12.377 1.964-19.65zm304.042 103.042c-38.856-7.638-75.559-14.853-122.226-14.853h-183.942l.037-15.509h183.906c45.207 0 81.213 7.078 119.333 14.571 28.708 5.643 58.393 11.479 93.897 14.699 6.769.614 13.818 1.058 21.039 1.058 19.835 0 40.961-3.354 61.097-15.731 1.721 2.909 2.599 6.125 2.599 9.651v22.419c-76.427 3.212-126.893-6.703-175.74-16.305z"/><path d="m48.407 342.781h114v15h-114z"/></g></g></svg>