<svg height="504pt" viewBox="0 -94 504.20945 504" width="504pt" xmlns="http://www.w3.org/2000/svg"><path d="m504.152344 280.808594v16.921875c0-1.386719-.78125 2.082031-2.429688 5.207031-3.828125 7.710938-11.695312 12.585938-20.304687 12.582031h-242.117188c-21.347656 0-42.609375-.085937-63.957031 0h-79.054688c-27.988281.648438-55.746093-5.140625-81.140624-16.921875-10.113282-3.160156-16.4375-13.199218-14.925782-23.691406 0-4.179688.292969-8.355469.867188-12.496094 6.683594 3.039063 52.851562 18.398438 303.46875 18.398438zm0 0" fill="#5e5f62"/><path d="m495.476562 176.671875c-17.359374 11.976563-69.425781 17.355469-86.78125 26.035156-15.535156 7.808594-24.125 66.125-25.6875 78.101563h-78.449218c-250.617188 0-296.785156-15.359375-303.46875-18.398438 1.207031-9.71875 4.269531-19.117187 9.027344-27.679687 31.847656 7.289062 119.40625 10.671875 135.636718 11.28125 1.648438.085937 2.601563.085937 2.601563.085937l-.085938-.085937c113.855469-2.605469 155.507813-56.84375 161.324219-65.347657 16.140625 9.285157 62.132812 7.898438 179.71875-34.972656zm0 0" fill="#e6e7e8"/><path d="m489.3125 145.691406c-117.585938 42.871094-163.578125 44.257813-179.71875 34.972656-5.816406 8.503907-47.46875 62.742188-161.324219 65.347657-11.714843-11.976563-3.125-48.683594-.519531-58.316407.707031-.222656 1.402344-.484374 2.082031-.78125l15.878907-7.984374 23.519531-11.714844 11.191406-5.640625 23.519531-11.800781 2.515625-1.21875 7.289063-3.644532c.949218-.414062 1.824218-.96875 2.605468-1.648437l9.71875-7.289063 6.855469-5.117187 13.625-10.15625c1.222657-.933594 2.328125-2.011719 3.296875-3.210938.707032-.917969 1.316406-1.90625 1.820313-2.949219l1.390625-2.691406 10.238281-20.652344 2.863281-5.640624c.699219-1.367188 1.195313-2.828126 1.476563-4.339844l7.984375-33.582032c.167968-.753906.429687-1.484374.78125-2.171874l8.15625-16.3125 8.246094-16.574219c5.167968-10.332031 17.304687-15.085938 28.117187-11.023438l49.808594 18.746094c.433593.085937.78125.257813 1.214843.347656l60.832032 13.449219c10.070312 2.25 17.761718 10.390625 19.441406 20.566406l5.898438 35.234375-117.84375-47.121093c-7.285157-2.957032-15.644532-.601563-20.308594 5.726562l-6.769532 9.023438c-2.914062 3.863281-4.082031 8.765624-3.226562 13.527343.859375 4.761719 3.664062 8.949219 7.742188 11.554688l73.933593 47.03125c3.714844 2.34375 8.175781 3.210937 12.496094 2.433593 14.058594-2.605468 51.199219-9.027343 59.273437-15.707031zm0 0" fill="#a5a5a4"/><path d="m504.152344 237.417969v43.390625h-121.144532c1.5625-11.976563 10.152344-70.292969 25.6875-78.101563 17.355469-8.679687 69.421876-14.058593 86.78125-26.035156l8.070313 48.335937c.570313 4.113282.773437 8.265626.605469 12.410157zm0 0" fill="#4482c3"/><path d="m483.414062 116.363281c-8.074218 6.679688-45.214843 13.101563-59.273437 15.707031-4.320313.777344-8.78125-.089843-12.496094-2.433593l-73.933593-47.03125c-4.078126-2.605469-6.882813-6.792969-7.742188-11.554688-.855469-4.761719.3125-9.664062 3.226562-13.527343l6.769532-9.023438c4.664062-6.328125 13.023437-8.683594 20.308594-5.726562l117.84375 47.121093zm0 0" fill="#4482c3"/><path d="m148.269531 246.011719h-2.515625c-16.230468-.609375-103.789062-3.992188-135.636718-11.28125 3.886718-7.398438 10.066406-13.335938 17.613281-16.921875 7.710937-2.730469 15.679687-4.679688 23.78125-5.816406 32.105469-6.855469 63.609375-15.359376 95.28125-23.949219.332031-.078125.652343-.195313.957031-.347657-2.605469 9.632813-11.195312 46.339844.519531 58.316407zm0 0" fill="#4482c3"/><g fill="#e6e7e8"><path d="m179.691406 205.085938c-3.304687.015624-6.332031-1.84375-7.808594-4.800782-13.652343-27.308594-.957031-37.3125 1.734376-39.050781 4.261718-3.183594 10.261718-2.511719 13.710937 1.535156 3.25 4.242188 2.566406 10.292969-1.542969 13.703125-.773437.816406-1.695312 1.472656-2.71875 1.9375.429688 4.980469 1.925782 9.808594 4.382813 14.160156 1.34375 2.6875 1.203125 5.878907-.375 8.4375-1.578125 2.558594-4.367188 4.117188-7.375 4.121094zm0 0"/><path d="m214.402344 187.730469c-3.304688.015625-6.332032-1.84375-7.808594-4.800781-13.652344-27.308594-.953125-37.316407 1.734375-39.050782 4.261719-3.183594 10.261719-2.511718 13.710937 1.535156 3.25 4.242188 2.570313 10.292969-1.542968 13.703126-.773438.816406-1.695313 1.472656-2.714844 1.9375.429688 4.976562 1.921875 9.808593 4.378906 14.160156 1.34375 2.6875 1.203125 5.878906-.375 8.4375s-4.367187 4.117187-7.371094 4.121094zm0 0"/><path d="m248.046875 174.773438c-2.085937.003906-4.101563-.75-5.671875-2.117188-23.085938-19.960938-15.1875-34.078125-13.375-36.699219 2.722656-4.566406 8.515625-6.246093 13.261719-3.84375 4.625 2.671875 6.3125 8.523438 3.824219 13.25-.425782 1.035157-1.046876 1.976563-1.828126 2.777344 2.304688 4.429687 5.535157 8.3125 9.476563 11.386719 2.746094 2.371094 3.726563 6.199218 2.460937 9.597656-1.269531 3.402344-4.519531 5.652344-8.148437 5.648438zm0 0"/><path d="m275.964844 156.332031c-1.574219 0-3.117188-.429687-4.46875-1.242187-20.375-12.253906-20.644532-29.832032-17.582032-36.445313 1.988282-4.148437 6.667969-6.273437 11.101563-5.042969 3.644531 1.242188 7.539063 4.660157 5.472656 13.953126-.074219.335937-.171875.667968-.285156.992187 1.730469 5.089844 5.414063 9.28125 10.238281 11.652344 3.34375 2.011719 4.933594 6.003906 3.890625 9.761719-1.042969 3.757812-4.464843 6.355468-8.367187 6.355468zm0 0"/><path d="m296.4375 130.921875c-1.046875 0-2.085938-.191406-3.0625-.5625-10.53125-3.6875-18.699219-12.128906-22.042969-22.769531-.871093-1.449219-1.300781-3.121094-1.234375-4.808594v-.625c-.3125-1.886719-.296875-3.8125.042969-5.695312 1.128906-4.304688 5.300781-7.085938 9.710937-6.472657 6.710938.988281 7.59375 6.941407 7.621094 11.167969 1.46875 6.121094 6.015625 11.03125 12 12.964844 3.929688 1.476562 6.238282 5.554687 5.484375 9.679687-.753906 4.128907-4.351562 7.125-8.546875 7.121094zm0 0"/></g></svg>